<?xml version="1.0" encoding="UTF-8"?>
<svg version="1.1" viewBox="0 0 960 960" width="240" height="240" xmlns="http://www.w3.org/2000/svg">
<path transform="translate(0)" d="m0 0h960v960h-960z" fill="#FEFEFE"/>
<path transform="translate(309,445)" d="m0 0v3l-10 13-13 16-7 8-11 11-17 13-20 14-28 17-17 10-18 12-16 13-12 12h-2l-2 4-11 12-10 13-9 13-7 15-4 13-3 22v24l3 14 6 14 11 18 8 10 11 13 13 11 11 7 12 6 17 5 6 1h27l19-4 16-6 17-9 14-10 14-12 8-7 7-7 7-8 15-16 7-8 9-10 7-8 12-14 13-13 7-8 4-2 2-4h2l2-4 7-7 8-7 17-17 11-9 10-7 16-8 26-10 7-2-5 5-10 8-18 18-7 8-11 12-3 3-3-2-2-4-4 2-5 6-7 7 1 4 4 5-2 5-7 8-7-6-4-1-7 8h-2l-2 4-4 5 2 4 6 6-1 4-7 10-3 3-5-4-5-6-3 1-6 8-8 11 2 4 7 12-1 5-5 8-4-1-4-5-5-5-4-2-16 16 1 4 11 17-1 5-7 8-4 4-4-1-8-16-4 2-14 12v3l9 19-2 4-7 6-4-1-6-9-4-8-4 1-15 10 2 9 5 15-1 3-13 7h-4l-4-17v-5l-25 7-1 24-2 2-13 1h-10l1-23-27-1-7 15-3 5-16-4-1-3 8-18-9-3-13-6h-3l-8 16-4 2-17-10 1-5 10-13v-2l-9-7-11-9-5 5-9 11-5-3-7-8-6-6 1-4 10-8 5-3-1-6-8-17-9 3-12 5-3-1-5-17 6-4 15-6-1-8-4-18v-4l-19 2-1-4 1-19 1-1h19l2-13 2-12-17-6 3-10 3-6 6 1 11 4 14-24-5-5-6-7 9-11 5 1 6 6 5-1 8-7 8-6-1-4-6-6 1-4 14-8 4 2 4 5 5-1 13-7-1-5-2-2v-4l15-8h5l3 5 6-1 10-5-1-4-2-3v-3l10-5 5 1 5 4 16-9-2-5v-4l41-24 14-10 16-13 11-10 8-7z" fill="#050505"/>
<path transform="translate(785,110)" d="m0 0h19l15 3 17 6 19 10 12 9 10 9 7 7 10 14 8 14 6 15 6 21 4 25v32l-3 21-5 21-8 21-12 23-14 21-9 12-8 10-9 10-6 7h-2v2l-8 7-8 8-11 9-18 13-16 10-22 12-20 9-24 9-26 8-34 8-49 8-13 1 2-5 9-10 11-9 21-12 24-13 5 1 13 18 3 3-13 6-16 6 21-6 33-12 33-15 23-12 21-14 14-11 15-14 12-12 9-11 10-13 10-15 13-24 8-20 6-21 4-24 1-20-2-20-5-21-8-20-9-15-10-12-12-9-12-6-9-2h-18l-8 4-6 7-3 9-2 10-5-2-12-8-10-10-5-10-1-14 3-10 6-11 9-9 10-5z" fill="#040404"/>
<path transform="translate(482,314)" d="m0 0h16l12 4 13 9 10 10 7 11 4 10 1 5v14l-3 12-7 14-7 9 6 7 13 11 16 12 19 12 27 14 21 9-1 2-18 6-13 8-10 8-4 3-12-18-9-10-9-8-14-10-21-12-3-1 4 17 8 16 7 11 9 11 9 10 8 7v2l-14 7-10 9-8 9-4 6h-2l-11-28-15-34-12-26-12-23-12-17-10-13-11-13-9-11-9-10v-2l-4-2 2-4 20-20 7-8 11-12 7-6 12-6z" fill="#040404"/>
<path transform="translate(617,208)" d="m0 0h2l11 26 12 27 8 16 16 28 14 23 16 25 8 12 14 20 11 13 3 3v2l-20 12-14 10-13 11-16 13-14 9-7 3h-7l-8-6-9-11-13-21-13-24-13-22-11-15-14-20-14-19-13-15-8-9-14-11-8-5 2-2 16-6 14-7 13-10 3-1 5 12 14 29 9 17 28 46 12 19 14 19 7 8 8 5 4 1h7l10-3 8-6 5-9 1-9-3-12-10-19-11-16-14-19-13-19-11-14-12-14-9-10-7-8-15-16-10-9 1-2 19-5 15-6 9-5z" fill="#040404"/>
<path transform="translate(707,105)" d="m0 0h9l10 2 8 5 6 7 2 5v12l-5 8-9 8-12 6-15 5-34 9-25 9-31 13-35 17-22 13-24 16-14 11-5 4-9-3-17-7-10-6-4-2v2l5 2 17 9 14 5v4l-15 12h-2v-2l-4-2-14-8-13-5-6-2 2-4 13-12 5-5 10-9 14-12 16-13 17-13 10-7 15-10 22-14 25-13 16-8 27-11 30-10 23-5z" fill="#050505"/>
<path transform="translate(285,499)" d="m0 0h2l8 16 10 15 15 24 8 16 13 32 10 23 6 9 8 9 11 9-5 5-14 12-12 11-20 20-10 13-11 14-9 7-9 3-7-3-9-11-12-23-9-25-9-29-9-21-13-25-9-13-9-10-12-10 1-2 15-5 14-8 4-3 3 1 6 20 11 26 14 29 10 20 11 17 9 10 8 5 4 1h7l10-5 7-10 3-12v-8l-3-15-8-21-12-23-10-15-14-17-3-3v-2h-2l-7-8-10-10 8-5 8-6 7-7z" fill="#040404"/>
<path transform="translate(704,171)" d="m0 0 14 2h21l11 13 12 17 12 21 11 25 11 33 5 22 1 7v20l-3 1-34-18-18-10-17-10-12-8 2 4 8 11 14 19 13 16 12 14 6 5-2 4-6 4-10 9-9 13-3 6-3-1-6-17-12-28-13-30-7-16-10-19-12-17-28-38-11-13-7-8-4-5 16-1 11-4 9-6 4 1 8 14 12 17 9 11 12 14 12 12 14 11 13 8 18 9-12-30-9-20-10-20-9-14-10-14-15-15z" fill="#040404"/>
<path transform="translate(393,419)" d="m0 0h2l11 23 12 22 13 22 10 14 28 38 9 11 9 10 7 6-1 3-12 3-11 6-8 9-4-2-15-10-16-9-28-12-20-7 2 6 10 19 10 14 11 12 11 8 5 3-1 3-10 5-10 8-8 8-6 7-2-2-15-37-13-30-11-22-14-22-9-12-9-10-7-7-11-7 3-2 8-4 6-8 5-9 1-4h2l5 13 6 11 7 9 4 5 13 10 23 12 29 13 31 12h3l-15-24-12-17-9-11-16-17-7-7-8-7-10-9-13-9-3-3 6-2 13-5 9-6 8-9z" fill="#050505"/>
<path transform="translate(169,576)" d="m0 0h2l5 12 4 6 7 7 5 4-2 4-13 10-11 10-7 10-2 4 1 7 6 11 4 5 6 5 6-1 13-9 11-11 5-7h2l5 12 9 11 5 4v2l-15 8-10 8-5 6-2 4-1 7v8l4 15 8 13 9 11 15 15 8 7 5 5-8 5-10 3-9 1h-9l-11-1-4-5-13-31-16-33-10-16-14-19-13-17-13-16-5-4v-3l14-8 11-9 10-13 15-23z" fill="#040404"/>
<path transform="translate(451,253)" d="m0 0 11 3 16 8 12 7-3 5-8 7h-2l-1 4-5 5-10 9-5 6-5 5-10 11h-2l-2 4-9 10-11 15-8 12-3 6-16-4-15-6 5 3 16 6 9 2-3 7-7 12-9 14-4 3-10-4-11-4-7-4-2-2 11-19 8-14 6-9 8-13 5 2 12 5 9 5 1-1-9-5-11-4-5-4 2-5 9-13 11-16 7-9 10-13 4-4 12 5 12 7 9 7v-2l-7-6-15-8-10-3 2-4 7-8h2l1-4 5-5z" fill="#070707"/>
<path transform="translate(231,169)" d="m0 0 4 1 14 15 7 8 12 13 10 11 7 8 11 12 3 3-1 4-14 13-4-1-14-15-7-8-3-4h-4l-5 5-15 14-2 1 1 4 11 12 7 8 3 3v2h2l2 4-16 15-4-1-7-8-22-24-9-10-11-12-7-8-8-9 1-3 11-9 4-4 4 1 18 20 4 5 5-1 7-7 8-7 6-5-1-4-15-16-7-8-1-3 12-12z" fill="#050505"/>
<path transform="translate(317,122)" d="m0 0h14l10 4 6 5 4 6-1 3-17 8-5-1-5-4h-8l-8 4-4 6 2 6 4 3h14l10-1h11l10 2 6 3 6 5 6 12v13l-4 8-6 7-11 7-13 5-4 1h-15l-11-4-7-6-4-6v-3l17-8 4-1 6 7 2 1h8l10-4 4-5v-6l-5-5-3-1h-39l-10-4-6-5-5-10v-12l6-12 7-7 9-6 11-4z" fill="#050505"/>
<path transform="translate(148,270)" d="m0 0h15l6 3-1 5-9 15-3 1-7-1-6 4-4 7v7l3 5 1 1 8-1 8-6 13-11 10-6 5-2h14l10 5 5 4 4 7 1 4v12l-4 13-7 11-8 9-10 6-6 2h-10l-9-3-1-5 6-10 4-6 10 1 7-3 7-11-1-9-5-3h-6l-9 6-12 10-13 8-7 2h-8l-10-4-5-4-5-9-1-5v-9l3-12 6-12 8-9 10-6z" fill="#050505"/>
<path transform="translate(488,335)" d="m0 0 11 1 8 4 6 5 7 11 4 12v9l-3 8-9 10-7 8-17 17h-4l-8-11-10-15-11-16-6-9 2-5 13-15 8-7 12-6z" fill="#FEFEFE"/>
<path transform="translate(810,252)" d="m0 0h60l2 7 1 12-31 1v4l1-3h14l1 2 1-2h6 3l5 1-2 20-3 16-2 5h-9l-40-5-5-2 1-13 2-2-2-2-1-18-2-13z" fill="#E7E7E7"/>
<path transform="translate(393,325)" d="m0 0 6 1 8 4 14 5 7 1-4 7-10 13-8 14-16-4-15-6 5 3 16 6 9 2-3 7-7 12-9 14-4 3-10-4-11-4-7-4-2-2 11-19 8-14 6-9 8-13 5 2 12 5 9 5 1-1-9-5-11-4-5-4 2-5z" fill="#060606"/>
<path transform="translate(866,570)" d="m0 0 1 4-8 30-8 24-9 22-12 25-8 15-11 18-8 12-9 12-13 16-9 11-29 29-8 7-13 11-16 12-24 16-24 14-26 13-33 13-26 8-29 7-22 4-28 3-20 1h-24l-30-2-33-5-32-7-29-9-11-4-2-4 4-1 30 10 28 7 36 6 19 2 17 1h32l27-2 29-4 28-6 31-9 29-11 26-12 24-13 19-12 17-12 18-14 14-12 10-10h2l2-4 17-17 18-22 13-18 10-15 11-18 8-16 10-21 11-29 9-29z" fill="#0F0F0F"/>
<path transform="translate(438,63)" d="m0 0h47l31 3 30 5 36 9 14 5 1 4-3 1-18-6-24-6-34-6-31-3h-49l-23 2-27 4-32 7-29 9-19 7-25 11-25 13-23 14-17 12-18 14-10 9-8 7-16 15-7 8-11 12-11 14-15 20-13 20-13 23-8 16-11 25-12 36-6 23-2 4 1-10 7-26 9-27 11-26 8-16 10-19 15-24 8-11 12-16 11-13 11-12 9-10 17-16 14-12 17-13 19-13 13-8 17-10 24-12 32-13 28-9 29-7 29-5z" fill="#0F0F0F"/>
<path transform="translate(390,778)" d="m0 0 14 2 3 9 6 36h2l2-6 10-19 8-14 16 2-1 13-8 47-9-1-3-1v-7l6-29 1-4-3 4-14 26-5 7-3 1-5-1-3-10-6-33-5 35-2 5-11-2 1-13 7-44z" fill="#070707"/>
<path transform="translate(804,339)" d="m0 0 21 6 21 5 6 1-1 5-5 10-3 5-9 14-10 13-6 7-4-2-7-6-20-12-5-4 10-16 3-4 5-11 19 9 18 8 5 2v-2l-6-2-33-15-2-4z" fill="#070707"/>
<path transform="translate(752,606)" d="m0 0h12l13 5 13 7 7 8 2 5v8l-5 10-6 5-4 1h-8l-10-3-14-7-9-7-4-7v-10l4-8 7-6z" fill="#070707"/>
<path transform="translate(507,789)" d="m0 0h6l2 1v7l1 2h7l1 1v7l-7 1 3 22 1 4h6l2 1v6l-2 3-3 1h-8l-5-2-3-6-4-25-6-3-1-3h-2l-3 12-12 37-4 6-5 4-2 1h-7l-2-3v-6l8-4 1-1v-7l-13-35-1-7h11l2 1 7 23v2h2l2-12 4-13 5-2h8l6-1v-11z" fill="#070707"/>
<path transform="translate(831,213)" d="m0 0h12l8 4 7 7 8 14 3 8-1 4h-59v-10l2-10 3-6 9-8z" fill="#040404"/>
<path transform="translate(784,514)" d="m0 0h15l13 4 9 6 5 8 2 7v11l-1 1h-6l-4-4v-8l-3-6-6-5 1 5v10l-4 6-8 5h-13l-8-4-6-7-2-5v-8l3-7 4-5 5-3z" fill="#080808"/>
<path transform="translate(755,409)" d="m0 0 4 2 8 7 1 3-12 8-1 2 6-4 7-5 4 1 9 9 6 3-3 5-13 10-12 9-10 5-8-9-7-8-9-11v-3l12-9 4 2 16 15 3 2v2l4 2 4 3-4-6-5-4-1-2-5-3-5-5-8-7 1-3 11-9z" fill="#060606"/>
<path transform="translate(546,792)" d="m0 0h12l8 4 5 7 3 10v9l-3 7-8 7-5 2h-11l-8-4-6-9-2-5v-13l4-8 6-5z" fill="#070707"/>
<path transform="translate(812,311)" d="m0 0 53 6-1 7-8 23-4 4-2-3-10-2-26-6-9-4 3-10 3-14z" fill="#080808"/>
<path transform="translate(623,764)" d="m0 0h3l7 42-1 4-5 2-5-1-11-12-5-6 1 12 1 15-5 3-5-1-9-10-8-11-9-11 1-4 5-2h5l11 16 3 3-2-17v-9l5-3 5 2 8 10 6 7-2-12-2-13z" fill="#080808"/>
<path transform="translate(723,531)" d="m0 0 1 2-7 25-7 20-7 17-8 16-6 11-11 16-11 14-12 13-15 15-14 11-10 8-19 12-27 14-26 10-27 7-15 3-17 2h-47l-20-3-3-3 1-2 37 3h19l31-3 25-5 26-8 21-9 23-12 17-11 12-9 14-12 11-10 7-8 9-10 14-19 12-20 8-16 8-19 9-28 3-11z" fill="#0E0E0E"/>
<path transform="translate(780,383)" d="m0 0 11 7 20 13 5 2-2 4-9 10-16 16-4-2-7-7-3-2v-2l-4-2-12-11-2-2 5-5 7-6 8 6 13 11 11 8-5-5-13-11-13-10 6-8z" fill="#070707"/>
<path transform="translate(729,647)" d="m0 0h9l6 3 6 7 4 13 3 15v3h2l2-4 7-11 4-4 4 1 3 2-1 6-20 28-3 1-5-4-4-16-4-17-4-8-4-2-7 1-2 3 1 7 2 3-1 5-4 5-4-1-5-8-1-6 3-10 4-6 6-5z" fill="#080808"/>
<path transform="translate(700,452)" d="m0 0h2l8 11 10 12 5 2-5 4-17 8-19 8-4-1-10-14-5-6v-3l15-8 4 2 10 13 4 6 4 1-10-13-8-9 2-4z" fill="#171717"/>
<path transform="translate(655,743)" d="m0 0h6l6 4 9 12 9 14 1 4-7 5-4-1-7-10-9-14-6-1-5 4 1 6 12 19 3 4v3l-8 5-4-2-11-17-9-14-2-4 6-5h6l3-6 7-5z" fill="#080808"/>
<path transform="translate(436,213)" d="m0 0h6l1 4-10 2-24 4-21 5-21 7-20 9-21 11-18 12-14 11-11 10-8 7-12 13-11 14-12 17-8 13-8 16-8 18-8 24-4 15h-1l1-9 6-21 7-19 10-22 13-22 11-15 10-13 8-8 7-8h2l1-3 8-7 17-14 15-10 17-10 25-12 19-7 21-6 19-4z" fill="#0D0D0D"/>
<path transform="translate(451,253)" d="m0 0 11 3 16 8 12 7-3 5-8 7-7-1-10-3 6 3v3 3l-6-1h-2l-3 1-12-7-11-4-3-1 2-4 7-8h2l1-4 5-5z" fill="#080808"/>
<path transform="translate(810,252)" d="m0 0h60l2 7 1 12h-32l-28-1-2-1z" fill="#070707"/>
<path transform="translate(809,173)" d="m0 0h10l6 3 6 7 2 7-1 9-6 8-6 3-6 1-10-3-5-4-4-8v-8l4-9 5-4z" fill="#050505"/>
<path transform="translate(794,363)" d="m0 0 5 1 13 8 20 12-1 5-8 10-5 6-4-2-7-6-20-12-5-4 10-16z" fill="#303030"/>
<path transform="translate(703,113)" d="m0 0h9l8 4 4 5 2 4v10l-4 7-7 5-3 1h-7l-7-3-5-5-3-7 1-10 5-7z" fill="#FCFCFC"/>
<path transform="translate(650,130)" d="m0 0h7l7 3 6 7 2 10-3 8-8 7-4 1h-7l-7-3-5-6-2-4v-9l4-8 7-5z" fill="#FCFCFC"/>
<path transform="translate(351,394)" d="m0 0 4 2v2l6 2 15 6 6 2-3 5-8 7-5 3-8 5-16 5h-17l2-5 9-10 7-9 18 6 5 3 1-1-7-4-11-4-5-1 2-6z" fill="#080808"/>
<path transform="translate(721,437)" d="m0 0 4 1 9 11 10 11 4 5-9 6-12 6-4-2-18-22-1-4 14-10z" fill="#060606"/>
<path transform="translate(814,294)" d="m0 0 56 4-2 12-2 5h-9l-40-5-5-2 1-13z" fill="#070707"/>
<path transform="translate(507,789)" d="m0 0h6l2 1v7l1 2h7l1 1v7l-7 1 3 22 1 4h6l2 1v6l-2 3-3 1h-8l-5-2-3-6-4-25-6-3-1-3h-2l-1 2 1-4 7-3v-11z" fill="#080808"/>
<path transform="translate(761,566)" d="m0 0 11 3 45 14 2 1-1 5-2 6-7-1-37-11-1 14-9-3-1-12z" fill="#070707"/>
<path transform="translate(364,373)" d="m0 0 1 2 12 3 19 8-2 5-7 12-5 4-10-4-11-4-7-4-2-2 11-19z" fill="#070707"/>
<path transform="translate(470,235)" d="m0 0 3 2h-2v2l5 2 17 9 14 5v4l-15 12h-2v-2l-4-2-14-8-13-5-6-2 2-4 13-12z" fill="#313131"/>
<path transform="translate(599,155)" d="m0 0 7 1 6 4 4 6v10l-4 6-6 4-7 1-6-2-5-4-3-8v-6l5-8 5-3z" fill="#FCFCFC"/>
<path transform="translate(552,181)" d="m0 0h7l6 3 4 5 2 5-1 8-5 7-4 2h-11l-6-4-4-10 2-8 4-5z" fill="#FCFCFC"/>
<path transform="translate(769,396)" d="m0 0 8 6 13 11 10 8-1 4-10 10-4-2-7-7-3-2v-2l-4-2-12-11-2-2 5-5z" fill="#060606"/>
<path transform="translate(406,307)" d="m0 0 2 2 15 5 9 5 3 4 3 1-2 4-7 8h-8l-19-7-8-4 7-12z" fill="#070707"/>
<path transform="translate(755,409)" d="m0 0 4 2 8 7 1 3-12 8-1 2 6-4 7-5 4 1 8 8-1 3h-2l-2 4-7 5h-2l-1 2-6-5-1-2-5-3-5-5-8-7 1-3 11-9z" fill="#121212"/>
<path transform="translate(804,339)" d="m0 0 21 6 21 5 6 1-1 5-5 10-4 5v-4l-6-2-33-15-2-4z" fill="#080808"/>
<path transform="translate(419,293)" d="m0 0 5 2 5 4 14 6 11 2-6 8-7 8h-2l-1 2-5-3-4-4-11-5-10-3v-4h3v-2l4-2 1-5h2z" fill="#333"/>
<path transform="translate(753,617)" d="m0 0h7l18 8 9 6 2 2-1 7-4 4-8-1-12-5-11-6-4-5 1-7z" fill="#FBFBFB"/>
<path transform="translate(809,323)" d="m0 0h8l41 7 2 2-5 6h-2l-2 5-2-1 2-9-4-1-3 9h-3v-3h2v-4h2v-3h-7v7l-3 6-8-1-19-5-3-2 3-10z" fill="#303030"/>
<path transform="translate(680,465)" d="m0 0 4 2 10 13 4 6v2l3 1-14 7-6 1-14-19-2-2v-3z" fill="#070707"/>
<path transform="translate(508,213)" d="m0 0h10l5 3 3 5 1 6-4 8-6 4h-7l-6-4-3-4-1-8 4-7z" fill="#FCFCFC"/>
<path transform="translate(393,325)" d="m0 0 6 1 8 4 14 5 7 1-4 7-9 12-1-3-2-1v-2l-9-5-11-4-5-4 2-5z" fill="#313131"/>
<path transform="translate(377,363)" d="m0 0 6 1 13 5 9 2-3 7-5 8-6-1-20-8-6-2v-2h6l1-9z" fill="#323232"/>
<path transform="translate(744,97)" d="m0 0h12l13 4 4 2v2l-16 10-7 8h-2l-4-10-6-9-3-4z" fill="#080808"/>
<path transform="translate(137,220)" d="m0 0 4 1-6 9-13 17-13 20-13 23-8 16-11 25-12 36-6 23-2 4 1-10 7-26 9-27 11-26 8-16 10-19 15-24 8-11z" fill="#121212"/>
<path transform="translate(351,394)" d="m0 0 4 2v2l6 2 15 6 6 2-3 5-8 7-4 1-1-2 2-1-8-5-11-4-5-1 2-6z" fill="#2F2F2F"/>
<path transform="translate(550,801)" d="m0 0 5 1 5 6 2 6v8l-2 4-6 3-6-2-4-6-2-10 3-7z" fill="#FBFBFB"/>
<path transform="translate(55,394)" d="m0 0h2v9l-4 24-3 35v41l2 20 1 8v15l-2-2-3-27-1-17v-39l2-30 3-22z" fill="#D5D5D5"/>
<path transform="translate(700,460)" d="m0 0 7 6 3 3 3 2v2l6 1 6 3-5 4-17 8-5-1 4-1-7-9 1-3-2-2 4 1 3 1-8-8-3-2 5-1 2 4 5 4 6 1-4-6-3-3-5-2z" fill="#2F2F2F"/>
<path transform="translate(699,711)" d="m0 0h6l6 5 2 6-2 5-4 4-7 1-7-6-1-2v-6l5-6z" fill="#070707"/>
<path transform="translate(442,265)" d="m0 0 5 2 8 5 21 9 1 2-5-1-10-3 6 3v3 3l-6-1h-2l-3 1-12-7-3-2-4-4 2-4h3l6 2 10 5v-2l-6-2-11-7z" fill="#313131"/>
<path transform="translate(782,526)" d="m0 0h13l5 3v9l-6 4h-8l-6-3-2-3v-6z" fill="#FBFBFB"/>
<path transform="translate(866,570)" d="m0 0 1 4-8 30-8 24-9 22-12 25-8 15-4 7-3-1 2-5 7-11 8-16 10-21 11-29 9-29z" fill="#282828"/>
<path transform="translate(858,330)" d="m0 0h3l-2 9-4 9-3 3-2-3-15-3 1-5 2-9h7v3h-2v4l-2 2h3l2-6 1-2 5 1-2 9 3-4h2l2-4 2-2z" fill="#0C0C0C"/>
<path transform="translate(810,323)" d="m0 0 13 1 35 6 2 2-5 6h-2l-2 5-2-1 2-9-4-1-3 9h-3v-3h2v-4h2v-3h-7l-27-5z" fill="#E0E0E0"/>
<path transform="translate(772,424)" d="m0 0 6 4 2 4-1 2h-2l-2 4-7 5h-2l-1 2-6-5-1-2-3-2 7-2 9-7z" fill="#131313"/>
<path transform="translate(244,329)" d="m0 0 1 3-9 13-11 20-9 21-8 24-4 15h-1l1-9 6-21 7-19 10-22 13-22z" fill="#232323"/>
<path transform="translate(876,445)" d="m0 0 2 1v38l-1 28-2 21-5 30-2 2v-9l5-30 2-21v-59z" fill="#DADADA"/>
<path transform="translate(92,291)" d="m0 0 3 1-8 16-11 26-11 33-6 23-2 4 1-10 7-26 9-27 11-26z" fill="#2A2A2A"/>
<path transform="translate(816,695)" d="m0 0 1 3-10 16-12 17-9 11-6 3 2-4 8-10 13-18 10-15z" fill="#141414"/>
<path transform="translate(700,452)" d="m0 0h2l8 11 8 10-1 2-4-2-3-3-3-2v-2l-4-2-1-4-7 1-5 1-2 4-4-1 2-4z" fill="#0C0C0C"/>
<path transform="translate(495,252)" d="m0 0 7 1 6 3-1 3-15 12h-2v-2l-4-2-4-4 11 1 1-4h2z" fill="#0A0A0A"/>
<path transform="translate(813,271)" d="m0 0h8l1 5-1 14-1 3-6-1-1-1z" fill="#0E0E0E"/>
<path transform="translate(723,531)" d="m0 0 1 2-7 25-7 20-7 17-11 22-4 1 2-5 10-18 10-24 9-28 3-11z" fill="#2A2A2A"/>
<path transform="translate(779,432)" d="m0 0 5 2 3 2-4 5-12 9-4 2-1-2h2l-2-4v-3l10-7 1-2h2z" fill="#0B0B0B"/>
<path transform="translate(700,460)" d="m0 0 7 6 3 3 3 2v2l6 1 3 3-7-1 4 2-2 2-6 1v2h-6v-2l3-3-2-2-8-4-5-5-3-2 5-1 2 4 5 4 6 1-4-6-3-3-5-2z" fill="#363636"/>
<path transform="translate(805,336)" d="m0 0 14 4 21 5 10 2 2 4-11-1-35-9-2-4z" fill="#DADADA"/>
<path transform="translate(868,273)" d="m0 0 5 1-2 20-1 2h-7l2-10 1-12z" fill="#0E0E0E"/>
<path transform="translate(825,272)" d="m0 0h6v9l-2 12h-7l2-20z" fill="#0D0D0D"/>
<path transform="translate(828,329)" d="m0 0 10 1v8l-3 6-8-1-4-2 2-1-1-3h4z" fill="#2B2B2B"/>
<path transform="translate(755,409)" d="m0 0 4 2 2 4h-3v2l-10 7h-3l-1 2-4-3 1-3 11-9z" fill="#0C0C0C"/>
<path transform="translate(828,386)" d="m0 0 4 1-4 6-10 12-4-2-2-4h3v-2l-6-1v-2l9 3 2-5 2-1v-4l6 1z" fill="#080808"/>
<path transform="translate(460,278)" d="m0 0 9 2 8 3-1 4-5 5-7 5-1-4-5-5 1-3 9 3-1-3-2-2 1-1-6-3z" fill="#0D0D0D"/>
<path transform="translate(851,273)" d="m0 0h5l-1 14-2 7-1 1h-5l-1-2 4-19z" fill="#0F0F0F"/>
<path transform="translate(795,363)" d="m0 0 6 2 11 7 20 12v2l-9-2-19-12-9-7z" fill="#DADADA"/>
<path transform="translate(859,273)" d="m0 0h6l-1 13-3 9-3 1-3-2 3-19z" fill="#101010"/>
<path transform="translate(755,408)" d="m0 0 5 1 13 12 8 7 6 7-5-1-4-4v-2l-5-2-2-3-5 1-9 7-4 1 4-5 10-7-5-5-7-6z" fill="#EAEAEA"/>
<path transform="translate(442,262)" d="m0 0 2 1v2h-2l4 4 13 7v2l-6-2-8-4-3 1-2-1v4l4 3-10-2-3-1 2-4 7-8h2z" fill="#101010"/>
<path transform="translate(690,616)" d="m0 0 1 3-13 19-11 14h-3v-3l8-9 14-20z" fill="#191919"/>
<path transform="translate(781,381)" d="m0 0 8 4 22 14 5 6-6-2-21-13-8-6z" fill="#ddd"/>
<path transform="translate(812,308)" d="m0 0 27 4 27 3-1 3-54-6z" fill="#EAEAEA"/>
<path transform="translate(838,272)" d="m0 0h2l1 4-4 16-2 2-4-1-1-2 4-17z" fill="#121212"/>
<path transform="translate(843,273)" d="m0 0 5 1-1 9-2 9-2 2h-5l2-11z" fill="#121212"/>
<path transform="translate(768,422)" d="m0 0 4 1-1 5-11 8h-6l1-5 6-4z" fill="#0D0D0D"/>
<path transform="translate(739,422)" d="m0 0 8 6 6 5 2 3 4 2 5 5 4 5v2l-4-2-12-11-14-13z" fill="#F0F0F0"/>
<path transform="translate(468,236)" d="m0 0h2v4h-2l-1 5h-2l-4 8-8-1 2-4z" fill="#090909"/>
<path transform="translate(803,350)" d="m0 0 9 3 30 14v2l-10-3-30-14z" fill="#E9E9E9"/>
<path transform="translate(876,445)" d="m0 0 2 1v38l-1 28-2 4v-70z" fill="#DADADA"/>
<path transform="translate(849,329)" d="m0 0 9 1 2 2-5 6h-2l-2 5-2-1 2-9-4-1-3 9h-3v-3h2v-4h2v-3z" fill="#E5E5E5"/>
<path transform="translate(48,503)" d="m0 0h2l2 20 1 8v15l-2-2-3-27z" fill="#CBCBCB"/>
<path transform="translate(112,258)" d="m0 0 1 3-8 13-10 17h-2l2-6 12-22z" fill="#181818"/>
<path transform="translate(858,330)" d="m0 0h3l-2 9-4 9-3 3-4-6 2-3 3-4h2l2-4 2-2z" fill="#141414"/>
<path transform="translate(823,270)" d="m0 0h18l1 2-2 2v-2l-5 2-4 18 1 2-3-1 1-12 1-9h-6z" fill="#E4E4E4"/>
<path transform="translate(430,274)" d="m0 0 1 2 10 2 15 8 5 4v2l4 2-2 2-12-9-14-7-7-3z" fill="#DBDBDB"/>
<path transform="translate(452,251)" d="m0 0 13 4 16 8 9 6v2l-5-2-16-9-18-7z" fill="#DCDCDC"/>
<path transform="translate(202,425)" d="m0 0h1v5l-2-1zm-2 5 2 1v8l-5 36h-1v-14z" fill="#CBCBCB"/>
<path transform="translate(683,463)" d="m0 0 5 5 9 11 5 6v2l-5-1-10-14-5-6z" fill="#DADADA"/>
<path transform="translate(811,269)" d="m0 0 12 1 2 1-2 18-1 4h7v1l-13 1-1-2h5l1-21-8-1-1 2z" fill="#EAEAEA"/>
<path transform="translate(471,237)" d="m0 0 4 1 10 6 17 7 8 4-2 2-9-4-12-5-11-6-5-3z" fill="#DEDEDE"/>
<path transform="translate(724,433)" d="m0 0 2 3 9 11 10 11 4 5-1 2-5-5-13-14-6-8-3-2h3z" fill="#EFEFEF"/>
<path transform="translate(769,395)" d="m0 0 5 2 13 11 14 11v2l-5-2-9-8-14-11z" fill="#EFEFEF"/>
<path transform="translate(840,276)" d="m0 0 2 2-2 10-2 6h6l4 3-18-1-7-1v-1l12-1 2-7z" fill="#F0F0F0"/>
<path transform="translate(442,265)" d="m0 0 5 2 8 5 21 9 1 2-5-1-11-4-15-8-4-3z" fill="#DADADA"/>
<path transform="translate(842,271)" d="m0 0h27l-1 3h-2v7h-1v-8h-6l-1 6h-1v-6h-14l-1 5h-1v-6z" fill="#F1F1F1"/>
<path transform="translate(828,344)" d="m0 0h7l7 2 8 1 2 4-11-1-13-4z" fill="#ddd"/>
<path transform="translate(394,325)" d="m0 0 5 1 8 4 17 6 1 3-9-2-21-9z" fill="#DADADA"/>
<path transform="translate(679,498)" d="m0 0 2 1v3l-24 8-8 1 3-2 21-8z" fill="#E7E7E7"/>
<path transform="translate(794,363)" d="m0 0 3 3-2 5-4 1-1 3-2 1-1 7-5-1 3-6 8-12z" fill="#0F0F0F"/>
<path transform="translate(824,329)" d="m0 0 5 1-1 7-3 1v2l2 1h-8l-1-3 3-2 2-6z" fill="#070707"/>
<path transform="translate(373,358)" d="m0 0 4 1-2 1 2 4h-5l-1 9h-6l1-5z" fill="#121212"/>
<path transform="translate(407,307)" d="m0 0 10 2 12 5 5 4 4 3-6-1-14-7-10-3z" fill="#DADADA"/>
<path transform="translate(365,373)" d="m0 0 6 1 17 6 8 4v2l-5-1-20-8-6-2z" fill="#DADADA"/>
<path transform="translate(228,353)" d="m0 0 3 1-14 28-1-3 7-16z" fill="#1C1C1C"/>
<path transform="translate(697,463)" d="m0 0 5 1 5 5 2 5-7-1-5-6z" fill="#111"/>
<path transform="translate(352,394)" d="m0 0 6 2 10 5 12 4 3 3-10-2-16-7-2-1v-2l-3-1z" fill="#E3E3E3"/>
<path transform="translate(713,475)" d="m0 0 12 2-5 4-13 6h-3v-3l7-1v-2l7-3-5-2z" fill="#0A0A0A"/>
<path transform="translate(343,407)" d="m0 0 9 2 12 5 5 5-4-1-16-6-6-3z" fill="#E4E4E4"/>
<path transform="translate(374,359)" d="m0 0 5 1 8 4 19 6v1l-10-1-19-7z" fill="#DADADA"/>
<path transform="translate(386,335)" d="m0 0 7 3 4 3 12 5 5 5-5-1-24-12z" fill="#DCDCDC"/>
<path transform="translate(351,394)" d="m0 0 4 2v2l4 1v2l-8-1v3h-3v2l3 1-1 1h-6l6-12z" fill="#171717"/>
<path transform="translate(419,293)" d="m0 0 5 2 5 4 19 8v1l-9-1-15-8-5-4z" fill="#DADADA"/>
<path transform="translate(712,461)" d="m0 0 5 5 8 10-3 1-5-4-7-9 2-1z" fill="#E0E0E0"/>
<path transform="translate(812,308)" d="m0 0 27 4v1l-10 1-18-2z" fill="#E1E1E1"/>
<path transform="translate(794,728)" d="m0 0h2l-2 4-8 10-6 3 2-4 7-9z" fill="#131313"/>
<path transform="translate(664,473)" d="m0 0 4 5 13 18h-3l-13-17-1-2-3-2z" fill="#EAEAEA"/>
<path transform="translate(826,327)" d="m0 0 21 1 5 2v1h-14l-12-3z" fill="#F2F2F2"/>
<path transform="translate(850,624)" d="m0 0 1 4-9 22-2-1 3-9 6-15z" fill="#1F1F1F"/>
<path transform="translate(809,323)" d="m0 0 2 1 1 6-1 6-5 1-1-3z" fill="#0C0C0C"/>
<path transform="translate(674,639)" d="m0 0h2l-2 4-8 10-3-3 9-10z" fill="#181818"/>
<path transform="translate(847,273)" d="m0 0 4 1-4 21-4-2 2-4 2-11z" fill="#DADADA"/>
<path transform="translate(856,273)" d="m0 0h1l1 11-2 10-4 1 3-15z" fill="#DADADA"/>
<path transform="translate(703,449)" d="m0 0 4 5 5 6v3l-4-1-6-8z" fill="#EFEFEF"/>
<path transform="translate(831,272)" d="m0 0 3 4-2 10-1 6 1 2-3-1 1-12z" fill="#DADADA"/>
<path transform="translate(698,459)" d="m0 0 5 1-1 2-2-1-2 2 1 6-4-2v-3l-6 2 1-4z" fill="#333"/>
<path transform="translate(870,545)" d="m0 0h2v8l-3 12h-1v-9z" fill="#A6A6A6"/>
<path transform="translate(774,423)" d="m0 0 6 4 7 7-3 1-6-5v-2l-4-1z" fill="#EDEDED"/>
<path transform="translate(79,319)" d="m0 0 2 1-3 9-4 10-2 1 2-9z" fill="#262626"/>
<path transform="translate(851,332)" d="m0 0 7 1-3 5h-2l-2 5-2-1z" fill="#7D7D7D"/>
<path transform="translate(805,336)" d="m0 0 10 4 3 3-8-1-5-2z" fill="#E3E3E3"/>
<path transform="translate(769,395)" d="m0 0 5 2 11 9-2 2-13-11z" fill="#ECECEC"/>
<path transform="translate(840,276)" d="m0 0 2 2-2 10-2 6-3-1 2-7z" fill="#DADADA"/>
<path transform="translate(710,573)" d="m0 0 1 3-7 17-2-1 2-6 5-12z" fill="#212121"/>
<path transform="translate(51,528)" d="m0 0 2 3v15l-2-2-1-15z" fill="#aaa"/>
<path transform="translate(692,464)" d="m0 0h3l2 4 5 4 8 4-2 1-10-5-5-5-3-2z" fill="#DADADA"/>
<path transform="translate(768,420)" d="m0 0 3 2-8 4-6 5-4 1 4-5z" fill="#E0E0E0"/>
<path transform="translate(803,350)" d="m0 0 9 3 6 3-1 3-15-7z" fill="#EBEBEB"/>
<path transform="translate(838,331)" d="m0 0h7v3h-2v3l-5 1z" fill="#111"/>
<path transform="translate(776,432)" d="m0 0 2 2-5 5-5 4h-2l2-4z" fill="#DFDFDF"/>
<path transform="translate(709,477)" d="m0 0 6 1-1 3h-3v2h-6v-2z" fill="#6C6C6C"/>
<path transform="translate(690,616)" d="m0 0 1 3-5 7-5 3 2-5 4-6z" fill="#141414"/>
<path transform="translate(442,265)" d="m0 0 5 2 8 5 3 1v2l-5-1-11-7z" fill="#DEDEDE"/>
<path transform="translate(821,685)" d="m0 0 3 1-6 11-3-1 2-5z" fill="#1C1C1C"/>
<path transform="translate(842,271)" d="m0 0h14l-3 2h-10l-1 5h-1v-6z" fill="#F7F7F7"/>
<path transform="translate(683,463)" d="m0 0 5 5 4 5-2 1-6-5-2-5z" fill="#E5E5E5"/>
<path transform="translate(758,416)" d="m0 0 3 1-11 8-3 1 2-4z" fill="#DBDBDB"/>
<path transform="translate(100,278)" d="m0 0 1 3-6 10h-2l2-6 3-6z" fill="#161616"/>
<path transform="translate(343,407)" d="m0 0 9 2 4 3-3 1-9-3z" fill="#DCDCDC"/>
<path transform="translate(471,237)" d="m0 0 4 1 11 7-3 1-12-7z" fill="#E5E5E5"/>
<path transform="translate(771,427)" d="m0 0 2 1-5 5-6 4-3-1z" fill="#E7E7E7"/>
<path transform="translate(386,335)" d="m0 0 7 3 4 3 3 3-10-3-5-4z" fill="#DADADA"/>
<path transform="translate(221,367)" d="m0 0 2 3-6 12-1-3z" fill="#1D1D1D"/>
<path transform="translate(643,511)" d="m0 0h9l-4 2-11 3-3-1z" fill="#464646"/>
<path transform="translate(118,249)" d="m0 0 1 3-5 7h-3l2-5z" fill="#111"/>
<path transform="translate(700,460)" d="m0 0 7 6 2 4-4-2-4-4-5-2z" fill="#DADADA"/>
<path transform="translate(834,330)" d="m0 0h4v8l-5 2 3-9z" fill="#656565"/>
<path transform="translate(713,475)" d="m0 0 12 2-5 4-3 1 1-4-5-2z" fill="#101010"/>
<path transform="translate(372,403)" d="m0 0 6 1 5 3-3 1-9-3z" fill="#DADADA"/>
<path transform="translate(349,400)" d="m0 0 2 1v2h-3v2l3 1-1 1h-6l2-5z" fill="#060606"/>
<path transform="translate(845,332)" d="m0 0h2l-3 9h-3v-3h2v-4h2z" fill="#888"/>
<path transform="translate(432,320)" d="m0 0h9v3h-2l-1 2-5-3z" fill="#3B3B3B"/>
<path transform="translate(811,269)" d="m0 0 12 1 2 1-1 4h-2l-1-3-8-1-1 2z" fill="#F2F2F2"/>
</svg>
